<svg width="40" height="40" viewBox="0 0 40 40" fill="none" xmlns="http://www.w3.org/2000/svg">
<mask id="mask0_2931_12355" style="mask-type:alpha" maskUnits="userSpaceOnUse" x="8" y="8" width="24" height="24">
<rect x="8" y="8" width="24" height="24" fill="#D9D9D9"/>
</mask>
<g mask="url(#mask0_2931_12355)">
<path d="M17 20.2727L19.4706 23L24 18.5" stroke="black" stroke-width="1.6" stroke-linecap="round" stroke-linejoin="round"/>
<path d="M12.0014 20.025C12.0014 21.4417 12.3556 22.7583 13.0639 23.975C13.7723 25.1917 14.7348 26.1667 15.9514 26.9C16.1848 27.05 16.3473 27.2542 16.4389 27.5125C16.5306 27.7708 16.5098 28.0167 16.3764 28.25C16.2431 28.5 16.0389 28.6625 15.7639 28.7375C15.4889 28.8125 15.2264 28.7833 14.9764 28.65C13.4264 27.75 12.2098 26.5333 11.3264 25C10.4431 23.4667 10.0014 21.8083 10.0014 20.025C10.0014 19.5917 10.0306 19.1667 10.0889 18.75C10.1473 18.3333 10.2264 17.9167 10.3264 17.5L10.0014 17.7C9.7681 17.85 9.5181 17.8875 9.25144 17.8125C8.98477 17.7375 8.78477 17.5833 8.65144 17.35C8.5181 17.1167 8.48894 16.8625 8.56394 16.5875C8.63894 16.3125 8.7931 16.1083 9.02644 15.975L12.0514 14.225C12.2848 14.0917 12.5389 14.0625 12.8139 14.1375C13.0889 14.2125 13.2931 14.3667 13.4264 14.6L15.1764 17.6C15.3098 17.8333 15.3389 18.0875 15.2639 18.3625C15.1889 18.6375 15.0348 18.8417 14.8014 18.975C14.5681 19.1083 14.3139 19.1375 14.0389 19.0625C13.7639 18.9875 13.5598 18.8333 13.4264 18.6L12.5764 17.125C12.3931 17.5917 12.2514 18.0667 12.1514 18.55C12.0514 19.0333 12.0014 19.525 12.0014 20.025ZM20.0014 12C19.3181 12 18.6431 12.0875 17.9764 12.2625C17.3098 12.4375 16.6764 12.6917 16.0764 13.025C15.8264 13.1583 15.5639 13.2042 15.2889 13.1625C15.0139 13.1208 14.8098 12.9833 14.6764 12.75C14.5264 12.4833 14.4931 12.2125 14.5764 11.9375C14.6598 11.6625 14.8348 11.45 15.1014 11.3C15.8514 10.8667 16.6389 10.5417 17.4639 10.325C18.2889 10.1083 19.1348 10 20.0014 10C21.3181 10 22.5806 10.2458 23.7889 10.7375C24.9973 11.2292 26.0764 11.9417 27.0264 12.875V12.5C27.0264 12.2167 27.1223 11.9792 27.3139 11.7875C27.5056 11.5958 27.7431 11.5 28.0264 11.5C28.3098 11.5 28.5473 11.5958 28.7389 11.7875C28.9306 11.9792 29.0264 12.2167 29.0264 12.5V16C29.0264 16.2833 28.9306 16.5208 28.7389 16.7125C28.5473 16.9042 28.3098 17 28.0264 17H24.5264C24.2431 17 24.0056 16.9042 23.8139 16.7125C23.6223 16.5208 23.5264 16.2833 23.5264 16C23.5264 15.7167 23.6223 15.4792 23.8139 15.2875C24.0056 15.0958 24.2431 15 24.5264 15H26.2514C25.4848 14.05 24.5598 13.3125 23.4764 12.7875C22.3931 12.2625 21.2348 12 20.0014 12ZM26.0514 25.275C26.6848 24.5417 27.1681 23.7333 27.5014 22.85C27.8348 21.9667 28.0014 21.0417 28.0014 20.075C28.0014 19.7917 28.0973 19.5417 28.2889 19.325C28.4806 19.1083 28.7181 19 29.0014 19C29.2848 19 29.5223 19.1083 29.7139 19.325C29.9056 19.5417 30.0014 19.7917 30.0014 20.075C30.0014 21.1583 29.8306 22.2042 29.4889 23.2125C29.1473 24.2208 28.6514 25.1583 28.0014 26.025C27.3514 26.8917 26.5806 27.6333 25.6889 28.25C24.7973 28.8667 23.8264 29.325 22.7764 29.625L23.0264 29.775C23.2598 29.9083 23.4098 30.1125 23.4764 30.3875C23.5431 30.6625 23.5098 30.9167 23.3764 31.15C23.2431 31.3833 23.0431 31.5333 22.7764 31.6C22.5098 31.6667 22.2598 31.6333 22.0264 31.5L18.9764 29.75C18.7431 29.6167 18.5889 29.4125 18.5139 29.1375C18.4389 28.8625 18.4681 28.6083 18.6014 28.375L20.3514 25.35C20.4848 25.1167 20.6848 24.9667 20.9514 24.9C21.2181 24.8333 21.4681 24.8667 21.7014 25C21.9348 25.1333 22.0889 25.3375 22.1639 25.6125C22.2389 25.8875 22.2098 26.1417 22.0764 26.375L21.1514 27.95C22.1014 27.8167 22.9973 27.5208 23.8389 27.0625C24.6806 26.6042 25.4181 26.0083 26.0514 25.275Z" fill="#1C1B1F"/>
</g>
</svg>
