<svg width="40" height="40" viewBox="0 0 40 40" fill="none" xmlns="http://www.w3.org/2000/svg">
<g clip-path="url(#clip0_3155_13392)">
<path fill-rule="evenodd" clip-rule="evenodd" d="M26.0156 29.375C25.9375 29.375 25.7812 29.2969 25.7031 29.2188L22.1094 25.625C21.9531 25.4688 21.9531 25.3906 21.9531 25.2344C21.9531 25.0781 22.0312 25 22.1094 24.9219C22.6562 24.5312 23.125 24.0625 23.5938 23.5938C24.0625 23.125 24.5312 22.6562 24.9219 22.1094C25 22.0312 25.0781 21.9531 25.2344 21.9531C25.3906 21.9531 25.4688 21.9531 25.625 22.1094L29.2188 25.7031C29.4531 25.9375 29.4531 26.1719 29.2188 26.4062L26.4062 29.2188C26.3281 29.2969 26.1719 29.375 26.0156 29.375Z" fill="#FCBE37"/>
<path fill-rule="evenodd" clip-rule="evenodd" d="M14.2188 28.4375C10.3906 28.4375 6.875 26.9531 4.14062 24.2969C1.48438 21.5625 0 18.0469 0 14.2188C0 10.3906 1.48438 6.875 4.14062 4.14062C6.875 1.48438 10.3906 0 14.2188 0C18.0469 0 21.5625 1.48438 24.2969 4.14062C26.9531 6.875 28.4375 10.3906 28.4375 14.2188C28.4375 18.0469 26.9531 21.5625 24.2969 24.2969C21.5625 26.9531 18.0469 28.4375 14.2188 28.4375Z" fill="#FE3745"/>
<path fill-rule="evenodd" clip-rule="evenodd" d="M36.4844 40C35.4688 40 34.6094 39.6094 33.9844 38.9844L25 30C24.9219 29.9219 24.8438 29.7656 24.8438 29.6875C24.8438 29.5312 24.9219 29.375 25 29.2969L29.2969 25C29.5312 24.7656 29.7656 24.7656 30 25L38.9844 33.9844C40.3125 35.3125 40.3125 37.5781 38.9844 38.9844C38.2812 39.6094 37.4219 40 36.4844 40Z" fill="#FCBE37"/>
<path fill-rule="evenodd" clip-rule="evenodd" d="M14.2188 1.875C10.9375 1.875 7.8125 3.20312 5.46875 5.46875C3.20312 7.8125 1.875 10.9375 1.875 14.2188C1.875 17.5 3.20312 20.625 5.46875 22.9688C7.8125 25.2344 10.9375 26.5625 14.2188 26.5625C17.5 26.5625 20.625 25.2344 22.9688 22.9688C25.2344 20.625 26.5625 17.5 26.5625 14.2188C26.5625 10.9375 25.2344 7.8125 22.9688 5.46875C20.625 3.20312 17.5 1.875 14.2188 1.875Z" fill="white"/>
<path fill-rule="evenodd" clip-rule="evenodd" d="M14.2188 21.4844C11.9531 21.4844 9.6875 20.7812 7.65625 19.5312C5.78125 18.2812 4.14062 16.4844 2.96875 14.375C2.89062 14.2188 2.89062 14.0625 2.96875 13.9062C4.14062 11.7969 5.78125 10 7.65625 8.75C9.6875 7.5 11.9531 6.79688 14.2188 6.79688C16.4844 6.79688 18.75 7.5 20.7812 8.75C22.6562 10 24.2969 11.7969 25.4688 13.9062C25.5469 14.0625 25.5469 14.2188 25.4688 14.375C24.2969 16.4844 22.6562 18.2812 20.7812 19.5312C18.75 20.7812 16.4844 21.4844 14.2188 21.4844Z" fill="#D9DCE1"/>
<path fill-rule="evenodd" clip-rule="evenodd" d="M14.2188 19.5312C11.25 19.5312 8.82812 17.1094 8.82812 14.1406C8.82812 11.1719 11.25 8.67188 14.2188 8.67188C17.1875 8.67188 19.6875 11.1719 19.6875 14.1406C19.6875 17.1094 17.1875 19.5312 14.2188 19.5312Z" fill="#55A7FA"/>
<path fill-rule="evenodd" clip-rule="evenodd" d="M13.75 17.2656C12.9688 17.0312 12.4219 16.3281 12.4219 15.5469C12.4219 15.2344 12.6562 15.0781 12.8906 15.0781C13.2031 15.0781 13.3594 15.2344 13.3594 15.5469C13.3594 16.0156 13.75 16.3281 14.2188 16.3281C14.6875 16.3281 15.0781 16.0156 15.0781 15.5469C15.0781 14.9219 14.8438 14.8438 14.1406 14.6875C13.4375 14.5312 12.4219 14.2969 12.4219 12.8906C12.4219 12.1094 12.9688 11.4062 13.75 11.1719V10.8594C13.75 10.625 13.9844 10.3906 14.2188 10.3906C14.4531 10.3906 14.6875 10.625 14.6875 10.8594V11.1719C15.4688 11.4062 16.0156 12.1094 16.0156 12.8906C16.0156 13.2031 15.7812 13.3594 15.5469 13.3594C15.2344 13.3594 15.0781 13.2031 15.0781 12.8906C15.0781 12.4219 14.6875 12.1094 14.2188 12.1094C13.75 12.1094 13.3594 12.4219 13.3594 12.8906C13.3594 13.5156 13.5938 13.5938 14.2969 13.75C15 13.9062 16.0156 14.1406 16.0156 15.5469C16.0156 16.3281 15.4688 17.0312 14.6875 17.2656V17.5781C14.6875 17.8125 14.4531 18.0469 14.2188 18.0469C13.9844 18.0469 13.75 17.8125 13.75 17.5781V17.2656Z" fill="white"/>
</g>
<defs>
<clipPath id="clip0_3155_13392">
<rect width="40" height="40" fill="white"/>
</clipPath>
</defs>
</svg>
