<svg width="40" height="40" viewBox="0 0 40 40" fill="none" xmlns="http://www.w3.org/2000/svg">
<g clip-path="url(#clip0_3155_13379)">
<path d="M20 39.6172C30.83 39.6172 39.6094 35.8571 39.6094 31.2188C39.6094 26.5804 30.83 22.8203 20 22.8203C9.17004 22.8203 0.390625 26.5804 0.390625 31.2188C0.390625 35.8571 9.17004 39.6172 20 39.6172Z" fill="#68A1D6"/>
<path d="M2.10938 32.9375C2.10938 28.2969 10.8906 24.5391 21.7188 24.5391C24.0078 24.5391 26.2109 24.7109 28.25 25.0156C29.1406 25.1484 29.3828 23.8281 28.5 23.6484C25.9297 23.1172 23.0469 22.8203 20 22.8203C9.17187 22.8203 0.390625 26.5781 0.390625 31.2188C0.390625 31.9297 0.601562 32.625 0.992187 33.2891C1.30469 33.8203 2.11719 33.5781 2.10938 32.9687C2.10938 32.9531 2.10938 32.9453 2.10938 32.9375Z" fill="#9AD2FC"/>
<path d="M36.093 26.4141C36.3508 26.9531 36.4836 27.5156 36.4836 28.0859C36.4836 32.7266 27.7023 36.4844 16.8742 36.4844C16.8039 36.4844 16.7414 36.4844 16.6711 36.4844C14.7336 36.4766 14.632 39.3359 16.5539 39.4844C17.6711 39.5703 18.8195 39.6094 19.9914 39.6094C30.8195 39.6094 39.6008 35.8516 39.6008 31.2109C39.6086 29.4297 38.3117 27.7812 36.093 26.4141Z" fill="#3179AF"/>
<path d="M30.5703 30.4609L38.5703 28.5156C37.8594 27.6172 36.7969 26.7891 35.4609 26.0547L15.6172 30.875L10.3125 23.9141C9.17187 24.1953 8.10156 24.5156 7.125 24.8828L12.3047 31.6797L1.71094 34.25C2.50781 35.1328 3.64844 35.9453 5.05469 36.6563L27.1641 31.2891L32.6094 37.6484C33.7109 37.25 34.7109 36.8047 35.5781 36.3125L30.5703 30.4609Z" fill="#C4C1AB"/>
<path d="M25.6623 2.05469C22.217 -0.171875 17.7795 -0.171875 14.3342 2.05469C9.60762 5.10937 8.15449 11.3672 11.0529 16.1875L19.9982 31.0938L28.9436 16.1875C31.842 11.3594 30.3889 5.10937 25.6623 2.05469ZM19.9982 14.6172C17.4514 14.6172 15.3889 12.5547 15.3889 10.0078C15.3889 7.46094 17.4514 5.39844 19.9982 5.39844C22.5451 5.39844 24.6076 7.46094 24.6076 10.0078C24.6076 12.5547 22.5451 14.6172 19.9982 14.6172Z" fill="#DB3328"/>
<path d="M25.6623 2.05469C24.6545 1.40625 23.5607 0.945312 22.4357 0.671875C25.9045 2.0625 28.3576 5.45313 28.3576 9.41406C28.3576 14.6172 24.1389 18.8281 18.9435 18.8281C14.0607 18.8281 10.0451 15.1094 9.57636 10.3516C9.49042 12.3359 9.95917 14.3594 11.0529 16.1875L19.9982 31.0937L28.9435 16.1875C31.842 11.3594 30.3889 5.10937 25.6623 2.05469Z" fill="#B5100B"/>
<path d="M20 40.0078C14.7109 40.0078 9.73437 39.125 5.97656 37.5156C2.125 35.8594 0 33.625 0 31.2188C0 29.1563 1.52344 27.2422 4.41406 25.6719C7.125 24.1953 10.9375 23.1406 15.1484 22.6797L15.2344 23.4531C11.125 23.8984 7.42188 24.9297 4.78906 26.3516C2.20313 27.75 0.78125 29.4766 0.78125 31.2109C0.78125 33.2891 2.73438 35.2734 6.28906 36.7891C9.94531 38.3516 14.8125 39.2188 20 39.2188C25.1875 39.2188 30.0547 38.3594 33.7109 36.7891C37.2656 35.2656 39.2188 33.2891 39.2188 31.2109C39.2188 29.5781 38 27.9922 35.6953 26.625C33.3594 25.2422 30.1328 24.2188 26.3672 23.6563L26.4844 22.8828C30.3516 23.4531 33.6719 24.5156 36.1016 25.9531C38.6563 27.4688 40.0078 29.2813 40.0078 31.2109C40.0078 33.6172 37.8828 35.8594 34.0313 37.5078C30.2656 39.1172 25.2891 40.0078 20 40.0078Z" fill="#060D1A"/>
<path d="M35.5594 26.4374L35.375 25.6782L20.8063 29.2162L20.9906 29.9754L35.5594 26.4374Z" fill="#060D1A"/>
<path d="M35.2891 36.5703L30.2734 30.7109C30.1875 30.6094 30.1562 30.4687 30.1953 30.3359C30.2344 30.2031 30.3437 30.1094 30.4766 30.0781L38.4766 28.1328L38.6641 28.8906L31.2812 30.6875L35.8828 36.0625L35.2891 36.5703ZM32.3125 37.8984L27.0234 31.7188L5.14844 37.0312L4.96094 36.2734L27.0703 30.9063C27.2109 30.875 27.3672 30.9219 27.4609 31.0313L32.9062 37.3906L32.3125 37.8984ZM1.80469 34.6328L1.61719 33.875L11.6328 31.4453L6.82031 25.125L7.44531 24.6484L12.625 31.4453C12.7031 31.5469 12.7266 31.6875 12.6797 31.8125C12.6328 31.9375 12.5313 32.0312 12.4063 32.0625L1.80469 34.6328ZM15.625 31.2656C15.5078 31.2656 15.3906 31.2109 15.3125 31.1094L10.0078 24.1484L10.6328 23.6719L15.7813 30.4297L19.2031 29.6016L19.3906 30.3594L15.7188 31.25C15.6875 31.2578 15.6563 31.2656 15.625 31.2656Z" fill="#060D1A"/>
<path d="M19.9991 31.4844C19.8585 31.4844 19.7335 31.4141 19.6632 31.2969L10.7179 16.3906C9.26475 13.9687 8.81944 11.1172 9.45225 8.36719C10.0851 5.61719 11.7491 3.25781 14.1241 1.72656C17.6944 -0.578125 22.3116 -0.578125 25.8819 1.72656C28.2569 3.25781 29.9132 5.61719 30.5538 8.36719C31.1944 11.1172 30.7413 13.9687 29.2882 16.3906L20.3351 31.2891C20.2648 31.4062 20.1398 31.4844 19.9991 31.4844ZM19.9991 0.773437C18.1007 0.773437 16.2023 1.3125 14.546 2.38281C9.96788 5.34375 8.58507 11.3203 11.3898 15.9844L19.9991 30.3359L28.6085 15.9922C31.4132 11.3203 30.0226 5.34375 25.4523 2.39062C23.796 1.3125 21.8976 0.773437 19.9991 0.773437Z" fill="#060D1A"/>
<path d="M20 15.0078C17.2422 15.0078 15 12.7656 15 10.0078C15 9.21094 15.1953 8.42187 15.5547 7.71094L16.25 8.07031C15.9375 8.67188 15.7812 9.32031 15.7812 10.0078C15.7812 12.3359 17.6719 14.2266 20 14.2266C22.3281 14.2266 24.2188 12.3359 24.2188 10.0078C24.2188 7.67969 22.3281 5.78906 20 5.78906C18.9297 5.78906 17.9063 6.19531 17.1172 6.92187L16.5859 6.35156C17.5156 5.47656 18.7266 5 20 5C22.7578 5 25 7.24219 25 10C25 12.7578 22.7578 15.0078 20 15.0078Z" fill="#060D1A"/>
</g>
<defs>
<clipPath id="clip0_3155_13379">
<rect width="40" height="40" fill="white"/>
</clipPath>
</defs>
</svg>
