<svg width="40" height="40" viewBox="0 0 40 40" fill="none" xmlns="http://www.w3.org/2000/svg">
<path d="M12.7517 2.5H28.523C29.3455 2.5 30.0117 3.23873 30.0117 4.15123V37.0988C30.0117 38.0113 29.3455 38.75 28.523 38.75H12.7517C11.9305 38.75 11.2617 38.0125 11.2617 37.1V4.15001C11.2617 3.23876 11.9305 2.5 12.7517 2.5Z" fill="#34485C"/>
<path d="M12.5156 6.25H28.7631V32.5H12.5156V6.25Z" fill="#F5F7F8"/>
<path d="M14.3844 4.99969C14.7261 4.99969 15.0031 4.72268 15.0031 4.38095C15.0031 4.03922 14.7261 3.76221 14.3844 3.76221C14.0426 3.76221 13.7656 4.03922 13.7656 4.38095C13.7656 4.72268 14.0426 4.99969 14.3844 4.99969Z" fill="#233646"/>
<path d="M21.2656 37.5C22.3012 37.5 23.1406 36.6605 23.1406 35.625C23.1406 34.5895 22.3012 33.75 21.2656 33.75C20.2301 33.75 19.3906 34.5895 19.3906 35.625C19.3906 36.6605 20.2301 37.5 21.2656 37.5Z" fill="#233646"/>
<path d="M23.1406 3.75H19.3906C19.0454 3.75 18.7656 4.02982 18.7656 4.375C18.7656 4.72018 19.0454 5 19.3906 5H23.1406C23.4858 5 23.7656 4.72018 23.7656 4.375C23.7656 4.02982 23.4858 3.75 23.1406 3.75Z" fill="#233646"/>
<path d="M27.5117 13.75H25.0117V31.25H27.5117V13.75Z" fill="#60C5B8"/>
<path d="M23.7617 18.75H21.2617V31.25H23.7617V18.75Z" fill="#FCD062"/>
<path d="M20.0117 17.5H17.5117V31.25H20.0117V17.5Z" fill="#F05542"/>
<path d="M16.2617 20H13.7617V31.25H16.2617V20Z" fill="#60C5B8"/>
<path d="M15.0117 12.5H13.7617V13.75H15.0117V12.5Z" fill="#F05542"/>
<path d="M22.5117 12.5H16.2617V13.75H22.5117V12.5Z" fill="#E9EDED"/>
<path d="M15.0117 10H13.7617V11.25H15.0117V10Z" fill="#60C5B8"/>
<path d="M22.5117 10H16.2617V11.25H22.5117V10Z" fill="#E9EDED"/>
<path d="M15.0117 7.5H13.7617V8.75H15.0117V7.5Z" fill="#FCD062"/>
<path d="M22.5117 7.5H16.2617V8.75H22.5117V7.5Z" fill="#E9EDED"/>
</svg>
