<svg width="40" height="40" viewBox="0 0 40 40" fill="none" xmlns="http://www.w3.org/2000/svg">
<mask id="mask0_1762_10163" style="mask-type:alpha" maskUnits="userSpaceOnUse" x="0" y="0" width="40" height="40">
<rect width="40" height="40" fill="#D9D9D9"/>
</mask>
<g mask="url(#mask0_1762_10163)">
<path d="M36.6673 36.6663L30.0007 29.9997H13.334C12.4173 29.9997 11.6326 29.6733 10.9798 29.0205C10.327 28.3677 10.0007 27.583 10.0007 26.6663V24.9997H28.334C29.2507 24.9997 30.0354 24.6733 30.6882 24.0205C31.3409 23.3677 31.6673 22.583 31.6673 21.6663V9.99967H33.334C34.2507 9.99967 35.0354 10.3261 35.6882 10.9788C36.3409 11.6316 36.6673 12.4163 36.6673 13.333V36.6663ZM6.66732 20.2913L8.62565 18.333H25.0007V6.66634H6.66732V20.2913ZM3.33398 28.333V6.66634C3.33398 5.74967 3.66037 4.96495 4.31315 4.31217C4.96593 3.6594 5.75065 3.33301 6.66732 3.33301H25.0007C25.9173 3.33301 26.702 3.6594 27.3548 4.31217C28.0076 4.96495 28.334 5.74967 28.334 6.66634V18.333C28.334 19.2497 28.0076 20.0344 27.3548 20.6872C26.702 21.34 25.9173 21.6663 25.0007 21.6663H10.0007L3.33398 28.333Z" fill="#1C1B1F"/>
</g>
</svg>
