<svg width="41" height="40" viewBox="0 0 41 40" fill="none" xmlns="http://www.w3.org/2000/svg">
<g clip-path="url(#clip0_1572_8388)">
<path d="M34.5 0H6.5C3.18629 0 0.5 2.68629 0.5 6V34C0.5 37.3137 3.18629 40 6.5 40H34.5C37.8137 40 40.5 37.3137 40.5 34V6C40.5 2.68629 37.8137 0 34.5 0Z" fill="#37AEE2"/>
<path d="M16.0469 31.5625C15.1875 31.5625 15.2656 31.25 15.0312 30.4687L12.5312 22.2656L31.6719 11.0156" fill="#C8DAEA"/>
<path d="M16.0469 31.5625C16.5937 31.5625 16.9062 31.25 17.2969 30.9375L20.8125 27.5781L16.4375 24.9219" fill="#A9C9DD"/>
<path d="M16.4372 24.9219L26.984 32.6563C28.0778 33.3594 29.0153 32.9688 29.3278 31.5625L33.6247 11.4063C34.0153 9.68754 32.9215 8.90629 31.7497 9.45316L6.67155 19.1407C5.03092 19.7657 5.03092 20.7813 6.35905 21.1719L12.8434 23.2032L27.6872 13.75C28.3903 13.3594 29.0153 13.5157 28.5465 14.0625" fill="#F6FBFE"/>
</g>
<defs>
<clipPath id="clip0_1572_8388">
<rect x="0.5" width="40" height="40" rx="20" fill="white"/>
</clipPath>
</defs>
</svg>
