<svg width="41" height="40" viewBox="0 0 41 40" fill="none" xmlns="http://www.w3.org/2000/svg">
<g clip-path="url(#clip0_1572_8396)">
<path d="M34.6712 5.81282C30.911 2.06655 25.911 0.00228568 20.5839 0C9.60645 0 0.673058 8.89125 0.668664 19.8199C0.667385 23.3132 1.58419 26.7233 3.32679 29.7291L0.501465 40L11.0587 37.2439C13.9675 38.8233 17.2425 39.6555 20.5753 39.6568H20.5838H20.5839C31.5595 39.6568 40.4942 30.764 40.4989 19.8359C40.5007 14.5394 38.431 9.55935 34.6712 5.81282ZM20.5839 36.3092H20.5774C17.6067 36.3076 14.6936 35.5136 12.1526 34.0124L11.5479 33.6555L5.28296 35.2909L6.95561 29.2117L6.56162 28.5885C4.90455 25.9653 4.02976 22.9339 4.03101 19.8211C4.03465 10.7376 11.4597 3.34778 20.5901 3.34778C25.0115 3.34961 29.1671 5.06544 32.2925 8.17922C35.4177 11.293 37.1376 15.4323 37.1362 19.8345C37.1324 28.9183 29.707 36.3092 20.5839 36.3092Z" fill="#E0E0E0"/>
<path d="M1.41553 38.8603L4.1118 29.0587C2.44837 26.1901 1.57361 22.9355 1.57466 19.6024C1.57902 9.17321 10.1044 0.688354 20.5795 0.688354C25.6635 0.69064 30.4352 2.66051 34.0229 6.23574C37.6113 9.81095 39.5863 14.5632 39.5842 19.6172C39.5799 30.0466 31.054 38.5322 20.5802 38.5322C20.5795 38.5322 20.5807 38.5322 20.5802 38.5322H20.5718C17.3912 38.5312 14.266 37.7363 11.4904 36.2302L1.41553 38.8603Z" fill="url(#paint0_linear_1572_8396)"/>
<path fill-rule="evenodd" clip-rule="evenodd" d="M15.6626 11.4053C15.2942 10.5898 14.9062 10.5734 14.5557 10.5592C14.269 10.5469 13.9408 10.5477 13.613 10.5477C13.2851 10.5477 12.7521 10.6704 12.3014 11.1604C11.8505 11.6505 10.5796 12.8352 10.5796 15.2446C10.5796 17.6542 12.3424 19.9825 12.5881 20.3095C12.8341 20.6361 15.9911 25.7386 20.9908 27.7015C25.146 29.3329 25.9916 29.0084 26.8935 28.9268C27.7954 28.8451 29.8037 27.7424 30.2137 26.5987C30.6236 25.4554 30.6236 24.4753 30.5007 24.2704C30.3777 24.0664 30.0497 23.9439 29.5577 23.699C29.0658 23.4541 26.6475 22.2692 26.1966 22.1059C25.7456 21.9427 25.4177 21.861 25.0897 22.3513C24.7617 22.8411 23.8196 23.9439 23.5326 24.2704C23.2456 24.5977 22.9586 24.6385 22.4667 24.3936C21.9747 24.148 20.3905 23.6314 18.5111 21.963C17.0488 20.6651 16.0615 19.062 15.7746 18.5718C15.4876 18.082 15.7438 17.8167 15.9906 17.5725C16.2114 17.3531 16.4825 17.0008 16.7285 16.7149C16.9739 16.4289 17.0559 16.2248 17.2199 15.8983C17.3839 15.5713 17.3019 15.2853 17.1789 15.0404C17.0559 14.7955 16.1 12.3737 15.6626 11.4053Z" fill="white"/>
<path d="M34.5085 5.7499C30.7914 2.04663 25.8488 0.00610252 20.5828 0.00378418C9.73142 0.00378418 0.900583 8.79296 0.896221 19.5961C0.894942 23.0494 1.80122 26.4203 3.52381 29.3917L0.730957 39.5446L11.167 36.8201C14.0424 38.3813 17.2798 39.204 20.5744 39.2053H20.5827H20.5828C31.4325 39.2053 40.2646 30.4146 40.2692 19.6119C40.271 14.3763 38.225 9.45343 34.5085 5.7499ZM20.5828 35.8962H20.5765C17.6398 35.8946 14.7601 35.1097 12.2483 33.6258L11.6505 33.273L5.45755 34.8896L7.11098 28.8802L6.72152 28.2642C5.08347 25.6711 4.21872 22.6744 4.21999 19.5974C4.22357 10.6182 11.5634 3.31319 20.589 3.31319C24.9597 3.31499 29.0675 5.01113 32.1571 8.08916C35.2464 11.1672 36.9465 15.259 36.9452 19.6107C36.9413 28.5902 29.6012 35.8962 20.5828 35.8962Z" fill="white"/>
</g>
<defs>
<linearGradient id="paint0_linear_1572_8396" x1="20.4999" y1="38.8603" x2="20.4999" y2="0.688418" gradientUnits="userSpaceOnUse">
<stop stop-color="#20B038"/>
<stop offset="1" stop-color="#60D66A"/>
</linearGradient>
<clipPath id="clip0_1572_8396">
<rect width="40" height="40" fill="white" transform="translate(0.5)"/>
</clipPath>
</defs>
</svg>
