<svg width="24" height="25" viewBox="0 0 24 25" fill="none" xmlns="http://www.w3.org/2000/svg">
<mask id="mask0_2749_8187" style="mask-type:alpha" maskUnits="userSpaceOnUse" x="0" y="0" width="24" height="25">
<rect y="0.5" width="24" height="24" fill="#D9D9D9"/>
</mask>
<g mask="url(#mask0_2749_8187)">
<path d="M6.53236 11.2857H4.71094V4H21.1038V11.2857H19.2823" stroke="white" stroke-width="1.21428" stroke-linecap="round" stroke-linejoin="round"/>
<path d="M6.53125 7.64258H19.2812" stroke="white" stroke-width="1.21428" stroke-linecap="round"/>
<path d="M17.4626 8.25V21H8.35547V8.25" stroke="white" stroke-width="1.21428" stroke-linecap="round" stroke-linejoin="round"/>
<path d="M4.71205 14.3213V19.1784M4.71205 19.1784L6.53347 17.357M4.71205 19.1784L2.89062 17.357" stroke="white" stroke-width="1.21428" stroke-linecap="round" stroke-linejoin="round"/>
<path d="M12.9279 17.9644C12.8144 17.9644 12.7192 17.9256 12.6424 17.848C12.5656 17.7705 12.5272 17.6743 12.5272 17.5596V17.0942C12.2267 17.0267 11.9629 16.9087 11.7358 16.74C11.5087 16.5714 11.3251 16.3352 11.1848 16.0317C11.138 15.9372 11.1364 15.8377 11.1798 15.7332C11.2232 15.6286 11.3017 15.5527 11.4152 15.5055C11.5087 15.465 11.6056 15.4667 11.7057 15.5105C11.8059 15.5544 11.8827 15.6269 11.9362 15.7281C12.0497 15.9305 12.1933 16.084 12.3669 16.1885C12.5406 16.2931 12.7543 16.3454 13.0081 16.3454C13.2819 16.3454 13.514 16.283 13.7043 16.1582C13.8947 16.0334 13.9898 15.8394 13.9898 15.5763C13.9898 15.3402 13.9164 15.153 13.7694 15.0147C13.6225 14.8764 13.2819 14.7196 12.7476 14.5442C12.1732 14.362 11.7792 14.1445 11.5655 13.8915C11.3518 13.6385 11.2449 13.3299 11.2449 12.9656C11.2449 12.5271 11.3852 12.1864 11.6657 11.9436C11.9462 11.7007 12.2334 11.5624 12.5272 11.5287V11.0835C12.5272 10.9688 12.5656 10.8727 12.6424 10.7951C12.7192 10.7175 12.8144 10.6787 12.9279 10.6787C13.0415 10.6787 13.1366 10.7175 13.2134 10.7951C13.2903 10.8727 13.3287 10.9688 13.3287 11.0835V11.5287C13.5824 11.5692 13.8028 11.6518 13.9898 11.7766C14.1768 11.9014 14.3305 12.0549 14.4507 12.237C14.5108 12.3247 14.5225 12.4226 14.4857 12.5305C14.449 12.6384 14.3739 12.716 14.2603 12.7632C14.1668 12.8037 14.07 12.8054 13.9698 12.7683C13.8696 12.7312 13.7761 12.6654 13.6893 12.571C13.6025 12.4765 13.5006 12.404 13.3838 12.3534C13.2669 12.3028 13.1216 12.2775 12.948 12.2775C12.6541 12.2775 12.4304 12.3433 12.2768 12.4748C12.1232 12.6064 12.0463 12.77 12.0463 12.9656C12.0463 13.1882 12.1465 13.3636 12.3469 13.4918C12.5472 13.62 12.8945 13.7549 13.3888 13.8966C13.8496 14.0315 14.1986 14.2457 14.4356 14.5391C14.6727 14.8326 14.7913 15.1716 14.7913 15.5561C14.7913 16.035 14.651 16.3993 14.3705 16.6489C14.09 16.8985 13.7427 17.0537 13.3287 17.1144V17.5596C13.3287 17.6743 13.2903 17.7705 13.2134 17.848C13.1366 17.9256 13.0415 17.9644 12.9279 17.9644Z" fill="white"/>
</g>
</svg>
